<svg width="15" height="15" viewBox="0 0 15 15" fill="none" xmlns="http://www.w3.org/2000/svg">
<path d="M13.585 1.21642H12.0982V0.498243C12.0982 0.365972 12.045 0.239124 11.9502 0.145594C11.8555 0.0520637 11.7269 -0.000488281 11.5929 -0.000488281C11.4589 -0.000488281 11.3303 0.0520637 11.2356 0.145594C11.1408 0.239124 11.0875 0.365972 11.0875 0.498243V1.21243H3.91146V0.498243C3.91146 0.365972 3.85822 0.239124 3.76345 0.145594C3.66868 0.0520637 3.54014 -0.000488281 3.40611 -0.000488281C3.27208 -0.000488281 3.14354 0.0520637 3.04877 0.145594C2.954 0.239124 2.90075 0.365972 2.90075 0.498243V1.21243H1.415C1.04059 1.21243 0.681447 1.35888 0.416228 1.61969C0.151009 1.8805 0.00133717 2.23442 0 2.60391V3.8557H14.996V2.60391C14.9936 2.2358 14.844 1.88351 14.5798 1.62368C14.3155 1.36384 13.958 1.21746 13.585 1.21642Z" fill="#030303"/>
<path d="M0 13.6082C0.00133717 13.9777 0.151009 14.3316 0.416228 14.5924C0.681447 14.8532 1.04059 14.9997 1.415 14.9997H13.585C13.9594 14.9997 14.3186 14.8532 14.5838 14.5924C14.849 14.3316 14.9987 13.9777 15 13.6082V4.93021H0V13.6082ZM7.075 11.8676C7.11993 11.3981 7.26002 10.9423 7.48695 10.5273C7.71388 10.1123 8.02302 9.74652 8.396 9.45173C9.09541 8.72757 9.27835 8.50314 9.27835 7.93857C9.27835 7.50966 9.16616 7.17452 8.67192 7.17452C8.17769 7.17452 8.02709 7.5316 8.00384 8.10216H7.11138C7.08791 7.88887 7.11245 7.6731 7.18324 7.47025C7.25404 7.2674 7.36934 7.08247 7.52092 6.92868C7.6725 6.77489 7.85662 6.65604 8.06013 6.5806C8.26364 6.50515 8.48151 6.47497 8.6982 6.49223C8.90216 6.46411 9.10993 6.48246 9.30559 6.54583C9.50126 6.60921 9.67963 6.71596 9.82704 6.85788C9.97446 6.99979 10.087 7.17311 10.156 7.36459C10.2251 7.55606 10.2488 7.76058 10.2254 7.9625C10.2254 8.6318 10.0232 8.98692 9.26016 9.72405C8.78529 10.1279 8.40375 10.6275 8.1413 11.1893H10.382L10.2567 11.9185H7.075V11.8676ZM4.67657 6.96704C5.047 6.91579 5.39635 6.76617 5.68728 6.53414H6.30281V11.9205H5.38104V7.53161C5.14897 7.58496 4.91179 7.61371 4.67354 7.61739L4.67657 6.96704Z" fill="#030303"/>
</svg>
